<svg id="Layer_1" data-name="Layer 1" xmlns="http://www.w3.org/2000/svg" viewBox="0 0 497.27 71.63"><defs><style>.cls-1{fill:#68376c;}</style></defs><title>logo</title><path class="cls-1" d="M32.66,256.37H50.27l14.66,34,14.76-34H97.3V326H79.59l.1-20.07,1.08-14.07-.59-.1L71,315.7H58.93l-9.35-23.91-.49.1L50.27,306V326H32.66Z" transform="translate(-32.66 -255.39)"/><path class="cls-1" d="M126.13,283.73h28.24V299H126.13v10.43h30.7V326H108.32V256.37h48.51V272.9h-30.7Z" transform="translate(-32.66 -255.39)"/><path class="cls-1" d="M201,277c-3.84-9.35-19.38-7.18-19.38,2v23.91c0,10.92,20.37,10.82,20.37,0v-2.56H190.87V285.6h28v17.32c0,16-13.38,24.1-27.35,24.1-13.77,0-27.55-8.07-27.55-24.1V279c0-15.74,13.77-23.61,27.55-23.61,9.05,0,19.38,3.74,24.2,14.86Z" transform="translate(-32.66 -255.39)"/><path class="cls-1" d="M284.84,326H265.95l-4.53-14h-18.6l-4.33,14H219.61l24.3-69.66h16Zm-27.65-29.62-4.82-20.37h-.49l-5.12,20.37Z" transform="translate(-32.66 -255.39)"/><path class="cls-1" d="M349.58,256.37h18.2L347.71,326H331.38l-6.2-19.28-2.46-15.94h-.29l-2.66,15.84L314.26,326H297.93l-20.17-69.66h18.3l8.26,33.35,1.77,14.76h.49l1.67-14.66,7.77-24.4h13.38l7.18,24.5,2.26,14.56h.3l2-14.56Z" transform="translate(-32.66 -255.39)"/><path class="cls-1" d="M426.23,326H407.34l-4.53-14h-18.6l-4.33,14H361l24.3-69.66h16Zm-27.65-29.62-4.82-20.37h-.49l-5.12,20.37Z" transform="translate(-32.66 -255.39)"/><path class="cls-1" d="M430.85,256.37h17.71v52.24H476.9V326h-46Z" transform="translate(-32.66 -255.39)"/><path class="cls-1" d="M483.89,256.37H501.6v52.24h28.34V326h-46Z" transform="translate(-32.66 -255.39)"/></svg>